<mxfile host="app.diagrams.net" modified="2021-09-21T13:35:55.482Z" agent="5.0 (Macintosh; Intel Mac OS X 10_15_6) AppleWebKit/605.1.15 (KHTML, like Gecko) Version/14.0.3 Safari/605.1.15" etag="oc8Bx2ToepurT-IPMppV" version="15.2.9" type="github">
  <diagram id="6mdx0Sq_l6OhA2kVY_qb" name="Page-1">
    <mxGraphModel dx="799" dy="535" grid="1" gridSize="10" guides="1" tooltips="1" connect="1" arrows="1" fold="1" page="1" pageScale="1" pageWidth="827" pageHeight="1169" math="0" shadow="0">
      <root>
        <mxCell id="0" />
        <mxCell id="1" parent="0" />
        <mxCell id="gWsLUSQBiuaFbkCf5zvN-3" value="" style="edgeStyle=orthogonalEdgeStyle;rounded=0;orthogonalLoop=1;jettySize=auto;html=1;startArrow=classic;startFill=1;" edge="1" parent="1" source="gWsLUSQBiuaFbkCf5zvN-1" target="gWsLUSQBiuaFbkCf5zvN-2">
          <mxGeometry relative="1" as="geometry" />
        </mxCell>
        <mxCell id="gWsLUSQBiuaFbkCf5zvN-5" value="" style="edgeStyle=orthogonalEdgeStyle;rounded=0;orthogonalLoop=1;jettySize=auto;html=1;startArrow=classic;startFill=1;" edge="1" parent="1" source="gWsLUSQBiuaFbkCf5zvN-1" target="gWsLUSQBiuaFbkCf5zvN-4">
          <mxGeometry relative="1" as="geometry" />
        </mxCell>
        <mxCell id="gWsLUSQBiuaFbkCf5zvN-1" value="API&lt;br&gt;(Django)" style="rounded=0;whiteSpace=wrap;html=1;" vertex="1" parent="1">
          <mxGeometry x="230" y="150" width="120" height="60" as="geometry" />
        </mxCell>
        <mxCell id="gWsLUSQBiuaFbkCf5zvN-2" value="DB&lt;br&gt;(Postgres)" style="whiteSpace=wrap;html=1;rounded=0;" vertex="1" parent="1">
          <mxGeometry x="430" y="150" width="120" height="60" as="geometry" />
        </mxCell>
        <mxCell id="gWsLUSQBiuaFbkCf5zvN-4" value="Frontend&lt;br&gt;(Vue.js)" style="whiteSpace=wrap;html=1;rounded=0;" vertex="1" parent="1">
          <mxGeometry x="30" y="150" width="120" height="60" as="geometry" />
        </mxCell>
      </root>
    </mxGraphModel>
  </diagram>
</mxfile>
